<?xml version="1.0" encoding="UTF-8"?>
<svg version="1.1" xmlns="http://www.w3.org/2000/svg" width="200" height="200">
<path d="M0 0 C66 0 132 0 200 0 C200 66 200 132 200 200 C134 200 68 200 0 200 C0 134 0 68 0 0 Z " fill="#151519" transform="translate(0,0)"/>
<path d="M0 0 C4.66818358 2.43243835 9.1072343 5.24932877 13.54296875 8.08007812 C14.63544922 8.74813477 14.63544922 8.74813477 15.75 9.4296875 C16.40419922 9.84114014 17.05839844 10.25259277 17.73242188 10.67651367 C20.49125083 11.71699194 21.98746616 11.32006465 24.78125 10.44921875 C27.03602826 9.31603357 27.03602826 9.31603357 29.21484375 7.875 C30.4359082 7.12186523 30.4359082 7.12186523 31.68164062 6.35351562 C33.37555017 5.29074713 35.06309155 4.21776167 36.74414062 3.13476562 C42.98676437 -0.67989695 42.98676437 -0.67989695 47.07421875 -0.015625 C47.96753906 0.46777344 48.86085938 0.95117188 49.78125 1.44921875 C51.04582031 1.91714844 51.04582031 1.91714844 52.3359375 2.39453125 C55.16821598 3.83451122 56.82664619 4.91121467 58.78125 7.44921875 C59.57092105 12.88559363 59.30568956 17.99763715 58.78125 23.44921875 C57.7439978 23.82784058 57.7439978 23.82784058 56.68579102 24.21411133 C49.13223769 27.15580742 41.27444295 30.30459327 35.78125 36.44921875 C33.92642304 42.23782081 34.25718367 47.90856474 34.93579102 53.88989258 C35.2652598 57.31261234 35.48649519 60.07832814 34.78125 63.44921875 C31.61106778 66.89731563 28.23184414 69.00744639 23.78125 70.44921875 C18.68052904 70.11450552 14.77113546 68.56945957 10.61376953 65.65136719 C6.73993359 60.996158 7.88279956 54.79973313 8.21875 49.07421875 C8.25935547 47.76582031 8.29996094 46.45742187 8.34179688 45.109375 C8.44768953 41.88553201 8.59544051 38.66928133 8.78125 35.44921875 C8.05204346 35.32426025 7.32283691 35.19930176 6.5715332 35.07055664 C-1.14129771 33.35307001 -9.58067635 28.99823046 -15.21875 23.44921875 C-17.3033288 19.39349408 -17.21312227 15.43430001 -16.46875 11.015625 C-14.82754609 6.3330651 -12.96292569 4.55827277 -8.578125 2.39453125 C-7.79953125 2.08257812 -7.0209375 1.770625 -6.21875 1.44921875 C-5.56390625 1.03414063 -4.9090625 0.6190625 -4.234375 0.19140625 C-2.21875 -0.55078125 -2.21875 -0.55078125 0 0 Z " fill="#EDB70B" transform="translate(78.21875,71.55078125)"/>
<path d="M0 0 C5.11105211 1.81359914 9.07166131 4.26203406 14 7 C14 16.24 14 25.48 14 35 C15.98 35.66 17.96 36.32 20 37 C22.02636719 38.03735352 22.02636719 38.03735352 23.796875 39.12890625 C24.76947266 39.72155273 24.76947266 39.72155273 25.76171875 40.32617188 C26.41785156 40.73416016 27.07398437 41.14214844 27.75 41.5625 C32.29909204 44.41605733 32.29909204 44.41605733 37 47 C37 52.28 37 57.56 37 63 C28.55999705 58.87813809 20.40202447 54.45695925 12.3125 49.6875 C10.68924805 48.73907227 10.68924805 48.73907227 9.03320312 47.77148438 C1.1465853 43.1465853 1.1465853 43.1465853 0 42 C-0.08874135 38.89748799 -0.11518455 35.8173188 -0.09765625 32.71484375 C-0.0962413 31.78402481 -0.09482635 30.85320587 -0.09336853 29.8941803 C-0.08775172 26.90858809 -0.0751964 23.92306971 -0.0625 20.9375 C-0.05748716 18.91862087 -0.05292388 16.89974057 -0.04882812 14.88085938 C-0.03777683 9.92054428 -0.02050095 4.96028468 0 0 Z " fill="#EAB40B" transform="translate(40,93)"/>
<path d="M0 0 C0.42307156 5.79742044 0.72975985 11.58575795 0.93383789 17.39501953 C1.01890833 19.36536076 1.13463722 21.33464125 1.2824707 23.30126953 C2.44274454 39.14362442 2.44274454 39.14362442 -1.55426025 43.81744385 C-5.59614462 47.05316803 -10.1288449 49.12796068 -14.88870239 51.09832764 C-17.67439226 52.28801286 -20.20438632 53.7969393 -22.78125 55.3828125 C-24.35385411 56.29741263 -25.92675492 57.21150286 -27.5 58.125 C-28.32113281 58.60453125 -29.14226562 59.0840625 -29.98828125 59.578125 C-31.15423828 60.25488281 -31.15423828 60.25488281 -32.34375 60.9453125 C-33.36758789 61.54110107 -33.36758789 61.54110107 -34.41210938 62.14892578 C-36 63 -36 63 -37 63 C-37 57.72 -37 52.44 -37 47 C-33.54459354 44.99479003 -30.08592199 42.99564852 -26.625 41 C-25.64015625 40.42765625 -24.6553125 39.8553125 -23.640625 39.265625 C-22.69960937 38.72421875 -21.75859375 38.1828125 -20.7890625 37.625 C-19.91975098 37.12226563 -19.05043945 36.61953125 -18.15478516 36.1015625 C-16 35 -16 35 -14 35 C-14.0628418 34.18845459 -14.12568359 33.37690918 -14.19042969 32.54077148 C-14.4408434 28.84082958 -14.59615246 25.14266168 -14.75 21.4375 C-14.90082031 19.52227539 -14.90082031 19.52227539 -15.0546875 17.56835938 C-15.17505518 13.70656286 -15.13512963 10.7004549 -14 7 C-10.27127508 3.53810252 -5.28871121 0 0 0 Z " fill="#EAB40B" transform="translate(160,93)"/>
<path d="M0 0 C2.13960349 1.11494218 4.249752 2.28698393 6.33984375 3.4921875 C6.94381485 3.83879425 7.54778595 4.185401 8.1700592 4.54251099 C10.09518749 5.64881297 12.01632895 6.7618431 13.9375 7.875 C15.22566132 8.61632024 16.51407035 9.35721022 17.80273438 10.09765625 C21.20688098 12.05648021 24.60751083 14.02102554 28 16 C29.4377478 16.79688232 29.4377478 16.79688232 30.90454102 17.60986328 C31.94179321 18.29798096 31.94179321 18.29798096 33 19 C33 19.66 33 20.32 33 21 C28.78223118 23.94847162 24.86706496 26.36142147 20 28 C15.92293855 27.00430147 13.23456751 24.59173548 10 22 C8.11074584 20.80951108 6.19333347 19.66250008 4.25 18.5625 C3.38890625 18.04816406 2.5278125 17.53382812 1.640625 17.00390625 C-1.84769873 15.677724 -3.42080226 15.91143621 -7 17 C-9.97651625 18.52996127 -12.79598827 20.27717749 -15.625 22.0625 C-17.11212202 22.99897804 -18.60415836 23.9277085 -20.1015625 24.84765625 C-20.75463379 25.26023682 -21.40770508 25.67281738 -22.08056641 26.09790039 C-24 27 -24 27 -28 27 C-30.796875 25.6875 -30.796875 25.6875 -33.75 24 C-34.73484375 23.443125 -35.7196875 22.88625 -36.734375 22.3125 C-37.85585937 21.6628125 -37.85585937 21.6628125 -39 21 C-39 20.34 -39 19.68 -39 19 C-35.46255395 16.95435472 -31.92452372 14.90972373 -28.38598633 12.8659668 C-27.18628732 12.17287519 -25.98673882 11.479523 -24.78735352 10.78588867 C-21.91636266 9.12562882 -19.04303927 7.47002441 -16.16455078 5.82275391 C-14.19366556 4.68754105 -12.23182946 3.53627972 -10.28466797 2.36083984 C-9.10541748 1.6620874 -9.10541748 1.6620874 -7.90234375 0.94921875 C-7.23581787 0.54405029 -6.56929199 0.13888184 -5.88256836 -0.27856445 C-3.39179257 -1.23307651 -2.48403784 -0.96955243 0 0 Z " fill="#EBB50B" transform="translate(103,32)"/>
<path d="M0 0 C1.30517578 0.81791016 1.30517578 0.81791016 2.63671875 1.65234375 C3.51972656 2.20019531 4.40273437 2.74804688 5.3125 3.3125 C5.97636719 3.73402344 6.64023438 4.15554687 7.32421875 4.58984375 C-2.10435268 12.58984375 -2.10435268 12.58984375 -6.67578125 12.58984375 C-6.67578125 17.53984375 -6.67578125 22.48984375 -6.67578125 27.58984375 C-9.90979623 26.29623776 -12.90862115 25.03077261 -15.98828125 23.46484375 C-17.03435547 22.93503906 -17.03435547 22.93503906 -18.1015625 22.39453125 C-18.62105469 22.12898438 -19.14054687 21.8634375 -19.67578125 21.58984375 C-21.10436043 9.83052071 -21.10436043 9.83052071 -19.67578125 4.58984375 C-13.99491574 -1.60665587 -7.53741171 -3.97227099 0 0 Z " fill="#ECB60B" transform="translate(59.67578125,60.41015625)"/>
<path d="M0 0 C3.09415855 1.4256049 5.04438126 2.59499796 7.32421875 5.15234375 C8.77419195 10.80488155 8.73439981 15.49391848 7.32421875 21.15234375 C3.78850004 25.50120517 -0.36602516 26.82490473 -5.67578125 28.15234375 C-5.67578125 23.20234375 -5.67578125 18.25234375 -5.67578125 13.15234375 C-8.15078125 12.16234375 -8.15078125 12.16234375 -10.67578125 11.15234375 C-12.29389498 10.30341286 -13.89884081 9.42881743 -15.48828125 8.52734375 C-16.27847656 8.08132812 -17.06867188 7.6353125 -17.8828125 7.17578125 C-18.47449219 6.83804688 -19.06617188 6.5003125 -19.67578125 6.15234375 C-17.43896256 3.73031077 -15.1502095 2.05559563 -12.30078125 0.40234375 C-11.55054688 -0.04625 -10.8003125 -0.49484375 -10.02734375 -0.95703125 C-6.28264487 -2.3752893 -3.69503672 -1.17054448 0 0 Z " fill="#ECB60B" transform="translate(152.67578125,59.84765625)"/>
<path d="M0 0 C2.80232316 1.08217876 5.3242916 2.18629518 7.9375 3.6875 C11.65653599 5.28137257 13.15665414 5.17653445 17 4 C19.39399354 2.75532411 21.68038356 1.38284827 24 0 C24.66 0 25.32 0 26 0 C26.66053712 5.18421562 26.95860105 9.83626506 26 15 C22.89306038 18.59494061 19.53892734 20.62528571 15 22 C9.9209089 21.65016464 5.98362513 20.13276307 1.79296875 17.296875 C-1.92097805 12.53913923 -0.58843555 5.7100042 0 0 Z " fill="#EBB50B" transform="translate(87,147)"/>
<path d="M0 0 C4.99907669 1.99963068 9.32730302 4.34981365 14 7 C14 12.28 14 17.56 14 23 C9.00092331 21.00036932 4.67269698 18.65018635 0 16 C0 10.72 0 5.44 0 0 Z " fill="#E3B00B" transform="translate(63,106)"/>
<path d="M0 0 C1.43991833 11.10603674 1.43991833 11.10603674 0 16 C-3.51693961 19.54334306 -7.30441098 21.3871107 -12 23 C-12.66 23 -13.32 23 -14 23 C-15.43991833 11.89396326 -15.43991833 11.89396326 -14 7 C-10.36628061 3.33900043 -5.35019344 0 0 0 Z " fill="#E5B10B" transform="translate(137,106)"/>
<path d="M0 0 C2.67578125 1.41015625 2.67578125 1.41015625 5.3125 3.0625 C6.19550781 3.61035156 7.07851562 4.15820312 7.98828125 4.72265625 C8.65214844 5.14417969 9.31601563 5.56570312 10 6 C7.74955401 8.44457392 5.44198707 10.09902934 2.5625 11.75 C1.80066406 12.19859375 1.03882812 12.6471875 0.25390625 13.109375 C-2.45948002 14.1815623 -3.32479191 14.0895207 -6 13 C-7.77746676 12.02777955 -9.52689561 11.00310403 -11.25 9.9375 C-12.14203125 9.38964844 -13.0340625 8.84179688 -13.953125 8.27734375 C-14.62859375 7.85582031 -15.3040625 7.43429688 -16 7 C-11.38284102 2.20098355 -6.98064751 -2.13181451 0 0 Z " fill="#E7B20B" transform="translate(103,59)"/>
</svg>
